<svg width="1024" height="1024" viewBox="0 0 1024 1024" fill="none" xmlns="http://www.w3.org/2000/svg">
  <defs>
    <radialGradient id="plate" cx="0" cy="0" r="1" gradientUnits="userSpaceOnUse" gradientTransform="translate(352 254) rotate(48) scale(712)">
      <stop stop-color="#263742"/>
      <stop offset="0.48" stop-color="#111C24"/>
      <stop offset="1" stop-color="#070B10"/>
    </radialGradient>
    <linearGradient id="rim" x1="164" y1="134" x2="856" y2="884" gradientUnits="userSpaceOnUse">
      <stop stop-color="#D5E7E3"/>
      <stop offset="0.34" stop-color="#6DC8CF"/>
      <stop offset="0.7" stop-color="#2F596C"/>
      <stop offset="1" stop-color="#D9C98B"/>
    </linearGradient>
    <linearGradient id="flowA" x1="214" y1="356" x2="806" y2="714" gradientUnits="userSpaceOnUse">
      <stop stop-color="#9FE7F1"/>
      <stop offset="0.5" stop-color="#E7ECE6"/>
      <stop offset="1" stop-color="#BFAE71"/>
    </linearGradient>
    <linearGradient id="flowB" x1="244" y1="702" x2="804" y2="312" gradientUnits="userSpaceOnUse">
      <stop stop-color="#657E8B"/>
      <stop offset="0.45" stop-color="#B3D8D0"/>
      <stop offset="1" stop-color="#62F0D7"/>
    </linearGradient>
    <filter id="shadow" x="-20%" y="-20%" width="140%" height="140%" color-interpolation-filters="sRGB">
      <feDropShadow dx="0" dy="36" stdDeviation="36" flood-color="#000711" flood-opacity="0.58"/>
    </filter>
    <filter id="glow" x="-40%" y="-40%" width="180%" height="180%" color-interpolation-filters="sRGB">
      <feGaussianBlur stdDeviation="13" result="blur"/>
      <feColorMatrix in="blur" type="matrix" values="0 0 0 0 0.32 0 0 0 0 0.85 0 0 0 0 0.86 0 0 0 0.72 0"/>
      <feBlend in="SourceGraphic"/>
    </filter>
    <filter id="nodeGlow" x="-160%" y="-160%" width="420%" height="420%" color-interpolation-filters="sRGB">
      <feGaussianBlur stdDeviation="10" result="blur"/>
      <feColorMatrix in="blur" type="matrix" values="0 0 0 0 0.5 0 0 0 0 0.95 0 0 0 0 0.92 0 0 0 0.85 0"/>
      <feBlend in="SourceGraphic"/>
    </filter>
    <clipPath id="clip">
      <circle cx="512" cy="512" r="430"/>
    </clipPath>
  </defs>

  <rect width="1024" height="1024" fill="#05080D"/>
  <g filter="url(#shadow)">
    <circle cx="512" cy="512" r="430" fill="url(#plate)"/>
    <circle cx="512" cy="512" r="427" stroke="url(#rim)" stroke-width="6" stroke-opacity="0.86"/>
    <circle cx="512" cy="512" r="378" stroke="#CDE8E0" stroke-width="2" stroke-opacity="0.12"/>
    <circle cx="512" cy="512" r="306" stroke="#95F3E6" stroke-width="1.6" stroke-opacity="0.08"/>
  </g>

  <g clip-path="url(#clip)">
    <path d="M118 692 C272 606 330 770 504 642 C662 526 704 684 904 476" stroke="#67E8D5" stroke-width="74" stroke-linecap="round" stroke-opacity="0.08"/>
    <path d="M128 320 C282 210 394 326 512 350 C650 378 728 286 902 192" stroke="#D9C98B" stroke-width="58" stroke-linecap="round" stroke-opacity="0.08"/>
    <path d="M186 792 C308 742 344 872 506 746 C650 634 716 728 866 612" stroke="#E9EEE8" stroke-width="32" stroke-linecap="round" stroke-opacity="0.06"/>
    <g stroke="#E8F4EF" stroke-width="1.5" stroke-opacity="0.08">
      <path d="M182 270 H842"/>
      <path d="M152 512 H872"/>
      <path d="M206 752 H816"/>
      <path d="M272 156 V856"/>
      <path d="M512 126 V898"/>
      <path d="M752 168 V824"/>
    </g>
  </g>

  <g filter="url(#glow)" stroke-linecap="round" stroke-linejoin="round">
    <path d="M292 594 C358 706 520 730 637 634 C742 548 732 404 626 346 C508 282 348 352 306 480" stroke="url(#flowA)" stroke-width="34"/>
    <path d="M302 594 C372 508 486 502 584 548 C681 594 742 552 774 464" stroke="url(#flowB)" stroke-width="21" stroke-opacity="0.92"/>
    <path d="M414 316 C516 278 616 310 682 386" stroke="#BFD4D3" stroke-width="15" stroke-opacity="0.7"/>
  </g>

  <g filter="url(#nodeGlow)">
    <circle cx="292" cy="594" r="27" fill="#101C24" stroke="#D7F8F0" stroke-width="10"/>
    <circle cx="461" cy="704" r="19" fill="#BCEBE1"/>
    <circle cx="638" cy="634" r="24" fill="#102029" stroke="#E8D58D" stroke-width="8"/>
    <circle cx="773" cy="464" r="21" fill="#8AF3E1"/>
    <circle cx="414" cy="316" r="15" fill="#DDE5E0"/>
    <circle cx="682" cy="386" r="13" fill="#C5B87D"/>
  </g>

  <g opacity="0.7">
    <circle cx="342" cy="432" r="5" fill="#DDE9E4"/>
    <circle cx="534" cy="338" r="4" fill="#87F2E6"/>
    <circle cx="582" cy="744" r="5" fill="#E4D496"/>
    <circle cx="718" cy="594" r="4" fill="#D9F2EC"/>
    <circle cx="246" cy="518" r="4" fill="#79C9CF"/>
  </g>
</svg>
